HIERARCHY
ROOT Hips
{
	OFFSET	0.00	0.00	0.00
	CHANNELS 6 Xposition Yposition Zposition Zrotation Xrotation Yrotation
	JOINT LeftUpLeg
	{
		OFFSET	 0.126116	-0.014019	-0.065224
		CHANNELS 3 Zrotation Xrotation Yrotation
		JOINT LeftLeg
		{
			OFFSET	 0.000000	 0.000000	 0.569914
			CHANNELS 3 Zrotation Xrotation Yrotation
			JOINT LeftFoot
			{
				OFFSET	 0.000000	 0.000000	 0.544423
				CHANNELS 3 Zrotation Xrotation Yrotation
				JOINT LeftToeBase
				{
					OFFSET	 0.000000	 0.000000	 0.207117
					CHANNELS 3 Zrotation Xrotation Yrotation
					End Site
					{
						OFFSET	 0.000000	 0.000000	 0.207117
					}
				}
			}
		}
	}
	JOINT RightUpLeg
	{
		OFFSET	-0.124023	-0.008373	-0.065224
		CHANNELS 3 Zrotation Xrotation Yrotation
		JOINT RightLeg
		{
			OFFSET	 0.000000	 0.000000	 0.570047
			CHANNELS 3 Zrotation Xrotation Yrotation
			JOINT RightFoot
			{
				OFFSET	 0.000000	 0.000000	 0.544354
				CHANNELS 3 Zrotation Xrotation Yrotation
				JOINT RightToeBase
				{
					OFFSET	 0.000000	 0.000000	 0.207540
					CHANNELS 3 Zrotation Xrotation Yrotation
					End Site
					{
						OFFSET	 0.000000	 0.000000	 0.207540
					}
				}
			}
		}
	}
	JOINT Spine
	{
		OFFSET	 0.000184	-0.007763	 0.117403
		CHANNELS 3 Zrotation Xrotation Yrotation
		JOINT Spine1
		{
			OFFSET	 0.000000	 0.000000	 0.137269
			CHANNELS 3 Zrotation Xrotation Yrotation
			JOINT Spine2
			{
				OFFSET	 0.000000	 0.000000	 0.156879
				CHANNELS 3 Zrotation Xrotation Yrotation
				JOINT LeftShoulder
				{
					OFFSET	 0.080501	-0.002496	 0.160144
					CHANNELS 3 Zrotation Xrotation Yrotation
					JOINT LeftArm
					{
						OFFSET	 0.000000	 0.000000	 0.164363
						CHANNELS 3 Zrotation Xrotation Yrotation
						JOINT LeftForeArm
						{
							OFFSET	 0.000000	 0.000000	 0.364576
							CHANNELS 3 Zrotation Xrotation Yrotation
							JOINT LeftHand
							{
								OFFSET	 0.000000	 0.000000	 0.360812
								CHANNELS 3 Zrotation Xrotation Yrotation
								JOINT LeftHandIndex1
								{
									OFFSET	 0.000000	 0.000000	 0.086006
									CHANNELS 3 Zrotation Xrotation Yrotation
									JOINT LeftHandIndex2
									{
										OFFSET	 0.000000	 0.000000	 0.047236
										CHANNELS 3 Zrotation Xrotation Yrotation
										JOINT LeftHandIndex3
										{
											OFFSET	-0.004284	-0.000551	 0.038166
											CHANNELS 3 Zrotation Xrotation Yrotation
											End Site
											{
												OFFSET	-0.004284	-0.000551	 0.038166
											}
										}
									}
								}
							}
						}
					}
				}
				JOINT Neck
				{
					OFFSET	 0.000000	 0.000000	 0.176489
					CHANNELS 3 Zrotation Xrotation Yrotation
					JOINT Head
					{
						OFFSET	 0.000000	-0.001747	 0.077940
						CHANNELS 3 Zrotation Xrotation Yrotation
						End Site
						{
							OFFSET	 0.000000	-0.001747	 0.077940
						}
					}
				}
				JOINT RightShoulder
				{
					OFFSET	-0.080363	 0.000306	 0.159706
					CHANNELS 3 Zrotation Xrotation Yrotation
					JOINT RightArm
					{
						OFFSET	 0.000000	 0.000000	 0.164196
						CHANNELS 3 Zrotation Xrotation Yrotation
						JOINT RightForeArm
						{
							OFFSET	 0.000000	 0.000000	 0.365611
							CHANNELS 3 Zrotation Xrotation Yrotation
							JOINT RightHand
							{
								OFFSET	 0.000000	 0.000000	 0.360648
								CHANNELS 3 Zrotation Xrotation Yrotation
								JOINT RightHandIndex1
								{
									OFFSET	 0.000000	 0.000000	 0.069977
									CHANNELS 3 Zrotation Xrotation Yrotation
									JOINT RightHandIndex2
									{
										OFFSET	 0.000000	 0.000000	 0.052305
										CHANNELS 3 Zrotation Xrotation Yrotation
										JOINT RightHandIndex3
										{
											OFFSET	 0.009002	-0.000782	 0.042196
											CHANNELS 3 Zrotation Xrotation Yrotation
											End Site
											{
												OFFSET	 0.009002	-0.000782	 0.042196
											}
										}
									}
								}
							}
						}
					}
				}
			}
		}
	}
}
MOTION
Frames:    7
Frame Time: 0.03333334
 6.767702	 6.053450	 0.647336	-96.359010	 4.010772	-0.877915	 9.732124	 17.460160	-176.285300	-5.983355	-11.624330	 1.536978	-16.366690	 89.177660	 19.826610	-2.291244	 40.589160	-0.291540	 4.286188	-45.896710	 179.771900	-0.682215	-43.044570	 3.303101	-177.020800	 83.772760	-178.672800	 2.400538	 23.669780	-0.099188	-9.577957	 3.418002	 2.905178	-15.197470	-2.501541	 0.294110	-17.761850	-5.302801	-2.705874	-91.776180	 78.527400	-180.000000	 41.747370	 62.104190	-56.955800	-6.622787	-4.586476	-27.492660	 4.849755	-2.107378	-5.365236	-3.812334	 37.924440	-2.927599	-2.450526	 36.184240	 0.754587	-1.378229	 35.397820	-2.634230	-0.182872	 4.870236	-2.371723	-4.683272	-23.130780	-4.744339	 89.782090	 78.203830	-180.000000	-30.861750	 73.002090	 34.715820	 3.927655	-6.545526	 20.043260	-14.285050	-3.279193	 9.541776	 6.437017	 35.671460	-0.771858	 2.830251	 35.756010	-7.813440	-2.350882	 35.473990	 5.254307
 6.737557	 6.056224	 0.645043	-95.621880	 4.147098	-1.146812	 9.287593	 18.665310	-176.338900	-5.582446	-11.624660	 1.534916	-7.197335	 88.863580	 10.644180	-2.267823	 42.448800	-0.343346	 4.649786	-45.612740	-179.495700	-0.042843	-42.146590	 3.792987	-176.046500	 84.930590	-179.024500	 2.383507	 28.645010	 0.005554	-9.722543	 3.373796	 2.852332	-15.323530	-2.366545	 0.181971	-17.817040	-5.074891	-2.718458	-91.776180	 78.527400	-180.000000	 42.904800	 62.413980	-58.203530	-6.311720	-4.583470	-26.112080	 5.218520	-2.120532	-5.361677	-3.812334	 37.924440	-2.927599	-2.450526	 36.184240	 0.754587	-1.378229	 35.397820	-2.634230	-0.317691	 5.107158	-2.301675	-4.786911	-23.423560	-4.807544	 89.782120	 78.203870	 180.000000	-30.124140	 73.299630	 33.464350	 3.837543	-6.450347	 19.460770	-14.478870	-3.286288	 9.536674	 6.437017	 35.671460	-0.771858	 2.830251	 35.756010	-7.813440	-2.350882	 35.473990	 5.254307
 6.695281	 6.061229	 0.643722	-94.901220	 4.341916	-1.357458	 8.839749	 20.321910	-176.696300	-4.965163	-11.622440	 1.551934	 0.772895	 87.927270	 2.776601	-2.228283	 45.146620	-0.423357	 5.121096	-45.002250	-178.802900	 0.558775	-42.377330	 4.438041	-175.575400	 86.477300	-178.928200	 2.376424	 30.092690	 0.037300	-9.878498	 3.307361	 2.638898	-15.404170	-2.251771	-0.006688	-17.751320	-4.791849	-2.729952	-91.776180	 78.527400	-180.000000	 44.213720	 63.259850	-59.292720	-6.188189	-4.544143	-24.171580	 5.726233	-2.142261	-5.355106	-3.812334	 37.924440	-2.927599	-2.450526	 36.184240	 0.754587	-1.378229	 35.397820	-2.634230	-0.482471	 5.177561	-2.262653	-4.873579	-23.398780	-4.711593	 89.782090	 78.203830	-180.000000	-28.918150	 73.813360	 31.734670	 3.912374	-6.357244	 18.813270	-14.746750	-3.298239	 9.527238	 6.437017	 35.671460	-0.771858	 2.830251	 35.756010	-7.813440	-2.350882	 35.473990	 5.254307
 6.644129	 6.068170	 0.642202	-94.241170	 4.517604	-1.490627	 8.493801	 22.229380	-177.403000	-4.150714	-11.616600	 1.595539	 4.256320	 85.643200	-0.401299	-2.158745	 48.974990	-0.549004	 5.236801	-43.908610	-178.489700	 2.475566	-43.839170	 6.018867	-174.622900	 88.967120	-178.685000	 2.380148	 29.357900	 0.021105	-10.067830	 3.175282	 2.190441	-15.427550	-2.249726	-0.245771	-17.538590	-4.601323	-2.779183	-91.776180	 78.527400	-180.000000	 45.169230	 64.760670	-59.451180	-6.418177	-4.465354	-22.017840	 6.307477	-2.175466	-5.344188	-3.812334	 37.924440	-2.927599	-2.450526	 36.184240	 0.754587	-1.378229	 35.397820	-2.634230	-0.660998	 4.944010	-2.160466	-4.916068	-22.983790	-4.437067	 89.782120	 78.203870	 180.000000	-27.372370	 74.398590	 29.594540	 4.083835	-6.271621	 18.230250	-15.001600	-3.310406	 9.517362	 6.437017	 35.671460	-0.771858	 2.830251	 35.756010	-7.813440	-2.350882	 35.473990	 5.254307
 6.594985	 6.075289	 0.643779	-93.903470	 4.433835	-1.375566	 8.495584	 23.946310	-178.364100	-3.403347	-11.606500	 1.668179	 5.070812	 81.968840	-0.663345	-2.085359	 52.186210	-0.668379	 4.385835	-42.732180	-179.077100	 5.757458	-45.526280	 8.217157	 7.655241	 87.933980	 0.565603	 2.370347	 31.191800	 0.061861	-10.115080	 3.061555	 1.445503	-15.268880	-2.318745	-0.487473	-17.273560	-4.592343	-2.773042	-91.776180	 78.527400	-180.000000	 45.279090	 66.566470	-58.354560	-6.999966	-4.372140	-20.272390	 6.791217	-2.207276	-5.332731	-3.812334	 37.924440	-2.927599	-2.450526	 36.184240	 0.754587	-1.378229	 35.397820	-2.634230	-0.833649	 4.806651	-2.025530	-4.941561	-22.603130	-4.093715	 89.782140	 78.203830	 180.000000	-25.678990	 74.867140	 27.268250	 4.303866	-6.195730	 17.831190	-15.137360	-3.316907	 9.512207	 6.437017	 35.671460	-0.771858	 2.830251	 35.756010	-7.813440	-2.350882	 35.473990	 5.254307
 6.541294	 6.083838	 0.647536	-93.778500	 4.333152	-1.319570	 8.728046	 25.713350	-179.226600	-3.121907	-11.601330	 1.703965	 4.679955	 75.883450	 0.317020	-2.059247	 53.181590	-0.708565	 3.669013	-41.538270	-179.779100	 6.472609	-47.202750	 8.672234	 4.858243	 86.249130	 3.245827	 2.373164	 30.696300	 0.050745	-9.854022	 2.601788	 0.863774	-14.849720	-2.365348	-0.713390	-17.100500	-4.524797	-2.569476	-91.776180	 78.527400	 180.000000	 44.368120	 68.744030	-55.863350	-8.166416	-4.214003	-18.860440	 7.005466	-2.234746	-5.323018	-3.812334	 37.924440	-2.927599	-2.450526	 36.184240	 0.754587	-1.378229	 35.397820	-2.634230	-0.961579	 4.741001	-1.897013	-4.892071	-22.261250	-3.717088	 89.782140	 78.203830	 180.000000	-24.498800	 75.245220	 25.644280	 4.467212	-6.142303	 17.537630	-15.252540	-3.322835	 9.508179	 6.437017	 35.671460	-0.771858	 2.830251	 35.756010	-7.813440	-2.350882	 35.473990	 5.254307
 6.484794	 6.093423	 0.653369	-93.659000	 4.255629	-1.404452	 9.075422	 27.263900	-179.985900	-3.585372	-11.613060	 1.620626	 4.075544	 67.441800	 1.117057	-2.075479	 52.570310	-0.683701	 3.405768	-39.584380	 179.720200	 5.954016	-48.476240	 8.384883	 4.962412	 85.579730	 2.475893	 2.382242	 28.918460	 0.011503	-9.489753	 1.958477	 0.609610	-14.319740	-2.316090	-0.844221	-16.820830	-4.209735	-2.299809	-91.776180	 78.527400	 180.000000	 42.329430	 70.735650	-51.665030	-9.503455	-4.010338	-18.085050	 6.780312	-2.250334	-5.319935	-3.812334	 37.924440	-2.927599	-2.450526	 36.184240	 0.754587	-1.378229	 35.397820	-2.634230	-0.967572	 4.680032	-1.867589	-4.768770	-21.608530	-3.395329	 89.782090	 78.203830	-180.000000	-24.136010	 75.458950	 25.054780	 4.474108	-6.124035	 17.374620	-15.359230	-3.328635	 9.502972	 6.437017	 35.671460	-0.771858	 2.830251	 35.756010	-7.813440	-2.350882	 35.473990	 5.254307
